<svg xmlns="http://www.w3.org/2000/svg" viewBox="0 0 720 900" role="img" aria-labelledby="title desc">
  <title id="title">Professional profile portrait placeholder</title>
  <desc id="desc">Elegant abstract professional portrait placeholder in navy, white and gold.</desc>
  <defs>
    <linearGradient id="bg" x1="0" x2="1" y1="0" y2="1">
      <stop offset="0%" stop-color="#0b1736"/>
      <stop offset="58%" stop-color="#172d59"/>
      <stop offset="100%" stop-color="#c89b3c"/>
    </linearGradient>
    <linearGradient id="suit" x1="0" x2="1" y1="0" y2="1">
      <stop offset="0%" stop-color="#101f3f"/>
      <stop offset="100%" stop-color="#071226"/>
    </linearGradient>
  </defs>
  <rect width="720" height="900" fill="url(#bg)"/>
  <circle cx="570" cy="130" r="150" fill="#ffffff" opacity=".08"/>
  <circle cx="125" cy="735" r="220" fill="#ffffff" opacity=".07"/>
  <path d="M117 860c23-195 125-318 243-318s220 123 243 318H117z" fill="url(#suit)"/>
  <path d="M276 575h168l-42 134-42 46-42-46-42-134z" fill="#f8fafc"/>
  <path d="M326 657l34 98 34-98-34-37-34 37z" fill="#c89b3c"/>
  <circle cx="360" cy="338" r="150" fill="#f2cfa3"/>
  <path d="M219 323c14-118 69-179 160-179 88 0 137 54 147 158-67-33-140-41-219-25-34 7-64 22-88 46z" fill="#111827"/>
  <path d="M228 357c35 20 77 30 126 30 67 0 121-19 162-57 6 114-58 204-157 204-91 0-151-75-131-177z" fill="#f2cfa3"/>
  <path d="M265 411c44 33 130 35 184 0" fill="none" stroke="#9a5f42" stroke-width="10" stroke-linecap="round" opacity=".45"/>
  <rect x="188" y="738" width="344" height="22" rx="11" fill="#c89b3c" opacity=".88"/>
</svg>
